<svg version="1.1" xmlns="http://www.w3.org/2000/svg" viewBox="0 0 430.97408416289704 426.89340223439876" width="430.97408416289704" height="426.89340223439876">
  <!-- svg-source:excalidraw -->
  
  <defs>
    <style class="style-fonts">
      @font-face {
        font-family: "Virgil";
        src: url("https://excalidraw.com/Virgil.woff2");
      }
      @font-face {
        font-family: "Cascadia";
        src: url("https://excalidraw.com/Cascadia.woff2");
      }
    </style>
    
  </defs>
  <g stroke-linecap="round" transform="translate(14.975386987521915 15.572109404362209) rotate(0 202.99934858768734 198.01011728599303)"><path d="M205.33 -0.24 C222.68 -3.33, 243.36 2.51, 261 7.52 C278.64 12.52, 295.62 20.32, 311.15 29.77 C326.68 39.23, 341.8 51, 354.2 64.24 C366.6 77.47, 377.5 93.23, 385.57 109.19 C393.63 125.14, 399.29 142.24, 402.61 159.97 C405.93 177.69, 406.93 197.69, 405.47 215.55 C404.02 233.41, 400.15 250.6, 393.88 267.13 C387.61 283.66, 378.77 300.29, 367.83 314.74 C356.88 329.2, 342.62 342.99, 328.22 353.85 C313.81 364.71, 298.16 373.07, 281.39 379.92 C264.62 386.77, 245.92 392.62, 227.6 394.96 C209.28 397.3, 189.68 396.57, 171.47 393.97 C153.26 391.36, 134.8 386.8, 118.33 379.32 C101.86 371.85, 86.64 360.77, 72.66 349.11 C58.67 337.44, 44.6 323.83, 34.42 309.31 C24.24 294.79, 17.23 278.99, 11.57 262.01 C5.9 245.03, 1.64 225.42, 0.45 207.43 C-0.74 189.43, 0.42 171.18, 4.42 154.03 C8.41 136.87, 15.54 120.2, 24.43 104.48 C33.32 88.77, 45.03 72.65, 57.77 59.74 C70.5 46.83, 85.13 35.99, 100.85 27.02 C116.56 18.05, 131.7 10.18, 152.05 5.9 C172.41 1.62, 208.81 1.29, 222.97 1.35 C237.13 1.4, 237.32 2.98, 237.03 6.21 M294.07 20.9 C311.04 25.65, 326.33 39.19, 339.98 51.2 C353.63 63.2, 366.24 77.7, 375.97 92.91 C385.69 108.12, 393.13 125.42, 398.34 142.48 C403.55 159.53, 407.25 177.36, 407.23 195.24 C407.21 213.13, 403.12 232.29, 398.23 249.79 C393.33 267.29, 387.05 285.1, 377.84 300.24 C368.63 315.38, 356.07 328.64, 342.97 340.61 C329.87 352.59, 315.35 363.47, 299.24 372.09 C283.12 380.7, 264.49 388.22, 246.27 392.3 C228.06 396.37, 208.23 397.77, 189.93 396.52 C171.63 395.28, 153.68 390.9, 136.48 384.83 C119.28 378.76, 101.94 370.4, 86.75 360.11 C71.56 349.82, 56.84 336.58, 45.34 323.09 C33.84 309.6, 25.03 295.13, 17.77 279.17 C10.51 263.2, 4.31 245.04, 1.77 227.3 C-0.77 209.57, 0.31 190.34, 2.55 172.77 C4.79 155.2, 8.43 138.39, 15.2 121.9 C21.97 105.41, 31.74 88.11, 43.18 73.83 C54.61 59.56, 69.01 46.69, 83.81 36.24 C98.6 25.79, 114.8 16.89, 131.95 11.12 C149.09 5.35, 168.16 2.81, 186.67 1.61 C205.17 0.41, 224.82 0.8, 242.98 3.9 C261.13 6.99, 287.35 16.9, 295.59 20.17 C303.83 23.44, 294.21 20.16, 292.42 23.51" stroke="#1e1e1e" stroke-width="4" fill="none"></path></g><g stroke-linecap="round" transform="translate(12.119140216920187 20.873167662412698) rotate(0 202.99934858768722 198.01011728599303)"><path d="M146.66 7.63 C162.49 -0.17, 183.8 -0.49, 201.93 -0.61 C220.06 -0.72, 237.9 2.09, 255.44 6.94 C272.97 11.79, 291.35 19.49, 307.12 28.49 C322.9 37.49, 337.41 48.25, 350.08 60.94 C362.75 73.64, 374.58 88.77, 383.14 104.68 C391.7 120.6, 397.81 138.85, 401.44 156.44 C405.07 174.04, 406.04 192.59, 404.91 210.24 C403.79 227.88, 400.6 245.66, 394.69 262.32 C388.78 278.98, 379.95 295.66, 369.44 310.2 C358.94 324.74, 345.6 338.05, 331.65 349.56 C317.7 361.07, 302.32 371.82, 285.75 379.27 C269.19 386.72, 250.25 391.74, 232.27 394.25 C214.28 396.76, 196.01 396.54, 177.85 394.35 C159.69 392.15, 140.34 388.08, 123.3 381.08 C106.26 374.08, 89.83 363.69, 75.59 352.34 C61.35 340.99, 48.55 327.48, 37.87 312.99 C27.19 298.51, 17.78 281.93, 11.51 265.44 C5.23 248.95, 1.43 231.68, 0.22 214.05 C-1 196.41, 0.51 177.34, 4.22 159.62 C7.93 141.91, 14.34 123.82, 22.48 107.77 C30.62 91.72, 40.88 76.15, 53.05 63.3 C65.21 50.44, 78.33 40.19, 95.47 30.64 C112.61 21.09, 144.49 9.99, 155.9 6.02 C167.31 2.05, 163.22 3.56, 163.93 6.83 M277.76 14.51 C295.4 18.13, 313.04 31.12, 327.82 41.94 C342.6 52.75, 355.78 65.13, 366.45 79.4 C377.12 93.68, 385.16 110.83, 391.83 127.59 C398.5 144.34, 404.55 162.47, 406.48 179.95 C408.41 197.42, 406.95 215.05, 403.42 232.43 C399.88 249.82, 393.13 268.06, 385.28 284.26 C377.43 300.46, 368.15 316.25, 356.34 329.64 C344.52 343.02, 329.84 354.92, 314.41 364.57 C298.98 374.23, 281.19 382.11, 263.77 387.55 C246.36 392.99, 228.15 396.81, 209.91 397.2 C191.67 397.59, 172.43 394.55, 154.31 389.9 C136.18 385.25, 117.2 377.98, 101.17 369.28 C85.14 360.58, 70.82 350.32, 58.13 337.69 C45.45 325.06, 33.62 309.21, 25.05 293.51 C16.49 277.81, 11.11 260.58, 6.76 243.49 C2.4 226.39, -1.62 208.86, -1.08 190.93 C-0.55 173, 3.93 153.17, 9.95 135.93 C15.97 118.69, 25.17 102.03, 35.04 87.51 C44.92 72.99, 55.48 60.51, 69.22 48.82 C82.97 37.12, 100.85 24.94, 117.51 17.32 C134.17 9.69, 151.1 5.61, 169.19 3.05 C187.27 0.48, 207.62 0.07, 226.04 1.91 C244.46 3.75, 271.47 11.33, 279.71 14.08 C287.94 16.83, 277.11 15.37, 275.46 18.43" stroke="#1e1e1e" stroke-width="4" fill="none"></path></g><g stroke-linecap="round" transform="translate(154.95697193196042 82.48687264757996) rotate(0 38.06974010807585 38.446668227957616)"><path d="M33.38 0.81 C40.23 -0.52, 49.87 1.72, 56.31 5.3 C62.75 8.87, 69 15.21, 72.03 22.25 C75.06 29.29, 75.83 40.01, 74.5 47.52 C73.17 55.03, 69.4 62.58, 64.05 67.33 C58.7 72.08, 49.81 75.34, 42.42 76.01 C35.03 76.68, 26.12 74.98, 19.7 71.35 C13.28 67.71, 7.14 61.07, 3.9 54.23 C0.67 47.38, -1.36 37.72, 0.26 30.27 C1.89 22.82, 7.18 14.72, 13.66 9.53 C20.15 4.34, 34.32 0.49, 39.17 -0.86 C44.02 -2.22, 42.94 0.47, 42.78 1.41 M23.69 3.58 C29.97 0.23, 37.95 0.14, 45.26 1.83 C52.57 3.52, 62.38 8.35, 67.54 13.72 C72.7 19.08, 75.54 26.94, 76.22 34 C76.89 41.05, 75.05 49.54, 71.57 56.06 C68.09 62.57, 62.17 69.67, 55.33 73.07 C48.49 76.46, 37.84 77.75, 30.51 76.43 C23.17 75.1, 16.52 70.5, 11.3 65.12 C6.08 59.74, 0.34 51.53, -0.81 44.17 C-1.97 36.81, 0.76 27.8, 4.38 20.95 C7.99 14.1, 17.84 5.66, 20.86 3.09 C23.88 0.51, 21.98 5.1, 22.51 5.5" stroke="#1e1e1e" stroke-width="4" fill="none"></path></g><g stroke-linecap="round"><g transform="translate(214.8885429931886 142.41844370880767) rotate(0 25.016457681813108 19.631954730400025)"><path d="M0.47 0.06 C12.57 11.14, 26.45 21.41, 47.92 36.71 M0.19 -0.11 C11.02 9.34, 22.06 17.15, 49.85 39.38" stroke="#1e1e1e" stroke-width="4" fill="none"></path></g></g><mask></mask><g stroke-linecap="round"><g transform="translate(213.75819221811548 146.38267933773955) rotate(0 24.64599521585842 18.23262207860796)"><path d="M-0.32 1.32 C19.2 13.75, 34.82 29.67, 49.61 36.04 M0.39 -0.64 C10.3 8.43, 18.7 14.63, 48.18 37.11" stroke="#1e1e1e" stroke-width="4" fill="none"></path></g></g><mask></mask><g stroke-linecap="round"><g stroke-opacity="0.5" fill-opacity="0.5" transform="translate(216.47506943116082 141.55458620726745) rotate(0 25.251946814703842 18.72269207517354)"><path d="M1.99 0.72 C11.84 8.46, 23.76 19.23, 50.16 36.66 M0.34 0.48 C18.63 14.55, 38.43 28.14, 48.36 36.97" stroke="#1e1e1e" stroke-width="4" fill="none"></path></g></g><mask></mask><g stroke-opacity="0.7" fill-opacity="0.7" stroke-linecap="round" transform="translate(150.82800613006634 82.63706105775509) rotate(0 38.446668227957844 39.20052446772149)"><path d="M38.58 0.65 C45.83 0.26, 55.3 3.64, 61.55 8.19 C67.8 12.73, 73.91 20.71, 76.08 27.93 C78.24 35.15, 77.04 44.25, 74.53 51.5 C72.01 58.74, 67.09 66.83, 60.98 71.39 C54.87 75.94, 45.61 78.91, 37.87 78.82 C30.14 78.74, 20.76 75.7, 14.58 70.87 C8.4 66.03, 2.91 57.23, 0.82 49.8 C-1.27 42.37, -0.51 33.46, 2.04 26.28 C4.59 19.11, 8.34 10.81, 16.12 6.76 C23.9 2.71, 41.68 1.93, 48.74 1.98 C55.8 2.03, 58.42 6.42, 58.48 7.07 M43.85 -1.01 C50.85 -0.2, 59.3 7.42, 64.83 12.83 C70.36 18.24, 75.78 24.06, 77.03 31.47 C78.29 38.88, 75.93 50.07, 72.36 57.29 C68.8 64.5, 62.28 71.15, 55.65 74.76 C49.02 78.37, 40.07 80.23, 32.59 78.95 C25.12 77.67, 16.26 72.55, 10.79 67.08 C5.32 61.6, 0.67 53.92, -0.22 46.1 C-1.11 38.28, 2.1 27.27, 5.44 20.17 C8.78 13.07, 13.53 6.88, 19.82 3.51 C26.11 0.14, 39.07 0.49, 43.19 -0.04 C47.31 -0.56, 44.66 -0.49, 44.56 0.38" stroke="#1e1e1e" stroke-width="4" fill="none"></path></g><g stroke-linecap="round"><g transform="translate(251.33177622606104 163.1778866185382) rotate(0 -3.6801600437163415 4.146519429943282)"><path d="M-1.06 -0.59 C-3.12 3.05, -4.86 5.7, -7.32 8.3 M0.26 -0.22 C-2.4 3.27, -5.53 6.11, -7.62 8.89" stroke="#ffffff" stroke-width="4" fill="none"></path></g></g><mask></mask><g stroke-linecap="round"><g transform="translate(256.8000066392226 167.98074325940138) rotate(0 -2.8003474126801393 5.43208302983146)"><path d="M1.13 0.67 C-1.64 1.18, -3.17 4.58, -6.09 10.35 M0.39 0.51 C-1.9 2.02, -3.43 5.01, -6.73 9.9" stroke="#ffffff" stroke-width="4" fill="none"></path></g></g><mask></mask><g stroke-linecap="round" transform="translate(9.999999999999773 10) rotate(0 202.99934858768734 198.01011728599303)"><path d="M151.75 6.31 C167.76 -1.06, 187.94 -0.93, 206.17 -0.53 C224.41 -0.13, 243.75 3.68, 261.16 8.73 C278.56 13.78, 295.26 20.29, 310.61 29.77 C325.95 39.25, 341.08 52.39, 353.23 65.63 C365.37 78.86, 375.26 93.51, 383.46 109.17 C391.67 124.84, 398.89 141.97, 402.46 159.6 C406.03 177.23, 406.34 197.1, 404.88 214.97 C403.43 232.84, 400.04 250.18, 393.74 266.81 C387.43 283.44, 377.92 300.37, 367.05 314.75 C356.17 329.13, 342.67 341.97, 328.49 353.07 C314.3 364.16, 298.69 374.36, 281.93 381.32 C265.18 388.28, 246.23 392.86, 227.93 394.83 C209.63 396.81, 190.17 395.89, 172.13 393.19 C154.08 390.48, 136.08 385.75, 119.64 378.58 C103.21 371.41, 87.61 361.56, 73.5 350.17 C59.39 338.79, 45.55 324.89, 34.97 310.28 C24.39 295.68, 15.88 279.59, 10.03 262.56 C4.18 245.52, 0.63 225.93, -0.15 208.06 C-0.94 190.19, 1.34 172.61, 5.32 155.33 C9.29 138.05, 15.03 120.15, 23.7 104.39 C32.36 88.63, 44.54 73.57, 57.32 60.76 C70.11 47.95, 82.45 36.98, 100.4 27.51 C118.36 18.05, 151.38 7.62, 165.06 3.98 C178.74 0.33, 181.61 2.57, 182.49 5.65 M207.43 0.66 C225.03 -2.2, 244.62 2.97, 262.39 7.9 C280.16 12.83, 298.62 20.24, 314.04 30.23 C329.46 40.22, 343.01 54.44, 354.91 67.81 C366.81 81.19, 377.48 94.62, 385.44 110.49 C393.39 126.35, 399.58 145.37, 402.65 162.99 C405.72 180.62, 405.43 198.47, 403.83 216.24 C402.23 234.02, 399.24 252.79, 393.05 269.65 C386.86 286.52, 377.89 303.06, 366.68 317.45 C355.46 331.84, 340.32 345.22, 325.76 356 C311.21 366.78, 295.85 375.73, 279.35 382.11 C262.85 388.48, 245.02 392.3, 226.76 394.24 C208.5 396.18, 187.76 396.63, 169.77 393.73 C151.78 390.83, 135.09 384.5, 118.81 376.85 C102.52 369.21, 86.25 359.36, 72.09 347.88 C57.93 336.4, 43.94 322.77, 33.83 307.98 C23.73 293.2, 16.95 275.83, 11.45 259.16 C5.94 242.49, 1.94 225.94, 0.79 207.99 C-0.35 190.03, 0.25 169.16, 4.55 151.42 C8.85 133.67, 17.77 116.89, 26.59 101.52 C35.42 86.15, 44.92 71.63, 57.52 59.2 C70.12 46.78, 86.21 35.71, 102.21 26.96 C118.2 18.21, 135.88 11.11, 153.48 6.71 C171.08 2.31, 198.66 1, 207.81 0.57 C216.96 0.14, 208.36 0.98, 208.4 4.11" stroke="#1e1e1e" stroke-width="4" fill="none"></path></g><g transform="translate(86.6653159897844 198.81744046512335) rotate(0 127.95747365749344 76.02154295936236)"><text x="255.9149473149871" y="0" font-family="Virgil, Segoe UI Emoji" font-size="60.81723436748989px" fill="#1e1e1e" text-anchor="end" style="white-space: pre;" direction="ltr" dominant-baseline="text-before-edge">Semantic</text><text x="255.9149473149871" y="76.02154295936236" font-family="Virgil, Segoe UI Emoji" font-size="60.81723436748989px" fill="#1e1e1e" text-anchor="end" style="white-space: pre;" direction="ltr" dominant-baseline="text-before-edge">Finder</text></g><g stroke-opacity="0.6" fill-opacity="0.6" transform="translate(89.78470768281773 201.010912505001) rotate(0 127.95617364307282 76.02154295936236)"><text x="255.91234728614563" y="0" font-family="Virgil, Segoe UI Emoji" font-size="60.81723436748989px" fill="#1e1e1e" text-anchor="end" style="white-space: pre;" direction="ltr" dominant-baseline="text-before-edge">Semantic</text><text x="255.91234728614563" y="76.02154295936236" font-family="Virgil, Segoe UI Emoji" font-size="60.81723436748989px" fill="#1e1e1e" text-anchor="end" style="white-space: pre;" direction="ltr" dominant-baseline="text-before-edge">Finder</text></g><g stroke-linecap="round"><g transform="translate(16.55258041109596 279.46716377651614) rotate(0 191.85252554235672 -4.792164457670083)"><path d="M-0.19 -0.55 C117.94 -3.76, 235.25 -4.96, 383.13 -8.48 M-0.4 -0.17 C134.3 -2.68, 268.7 -6.11, 384.1 -9.41" stroke="#1e1e1e" stroke-width="4" fill="none"></path></g></g><mask></mask><g stroke-linecap="round"><g transform="translate(26.078173751029908 275.2780507689961) rotate(0 196.5297209491838 -4.780643065116578)"><path d="M0.07 -1.12 C148.08 -3.72, 300.88 -4.61, 393 -8.63 M0.06 -0.51 C119.6 -2.03, 239.82 -6.72, 390.14 -9.06" stroke="#1e1e1e" stroke-width="4" fill="none"></path></g></g><mask></mask><g stroke-opacity="0.7" fill-opacity="0.7" stroke-linecap="round" transform="translate(149.94768768378094 83.39365958346889) rotate(0 38.446668227957844 39.20052446772149)"><path d="M51.07 3 C58.24 5.06, 66.53 10.83, 70.83 17.01 C75.14 23.2, 77.3 32.52, 76.91 40.09 C76.51 47.65, 73.17 56.27, 68.44 62.41 C63.72 68.54, 55.65 74.49, 48.55 76.89 C41.46 79.29, 32.9 79.27, 25.85 76.8 C18.79 74.32, 10.51 68.61, 6.22 62.06 C1.93 55.51, -0.25 45.35, 0.12 37.49 C0.49 29.64, 3.75 20.82, 8.45 14.93 C13.15 9.05, 20.63 4.08, 28.31 2.18 C35.98 0.27, 49.44 2.93, 54.5 3.5 C59.56 4.07, 58.92 4.89, 58.67 5.59 M52.93 1.45 C59.65 3.68, 66.05 10.87, 70.13 17.59 C74.21 24.31, 77.7 34.07, 77.42 41.77 C77.13 49.48, 73.53 57.79, 68.43 63.83 C63.32 69.86, 53.97 76.09, 46.79 77.96 C39.6 79.84, 32.19 77.96, 25.3 75.08 C18.42 72.2, 9.44 66.91, 5.48 60.68 C1.53 54.44, 1.09 45.42, 1.56 37.66 C2.02 29.9, 3.95 20.24, 8.27 14.11 C12.6 7.99, 20.22 2.68, 27.52 0.89 C34.82 -0.89, 47.75 3.06, 52.07 3.39 C56.39 3.72, 53.79 2.56, 53.46 2.89" stroke="#1e1e1e" stroke-width="4" fill="none"></path></g><g stroke-linecap="round"><g transform="translate(16.779736688454932 271.2640412923465) rotate(0 198.31502195763812 0.9075440671033448)"><path d="M0.7 2.2 C54.21 -1.6, 108 -1.72, 222.15 -0.59 M1.36 1.72 C58.9 2.46, 121.39 -0.79, 219.43 -1.64 M216.43 -2.03 C267.31 0.09, 311.65 2.39, 391.12 -1.18 M221.46 -1.12 C271.4 2.21, 319.94 3.62, 395.93 3.85" stroke="#1e1e1e" stroke-width="4" fill="none"></path></g></g><mask></mask></svg>